<svg xmlns="http://www.w3.org/2000/svg" xmlns:xlink="http://www.w3.org/1999/xlink" width="500" zoomAndPan="magnify" viewBox="0 0 375 112.499997" height="150" preserveAspectRatio="xMidYMid meet" version="1.0"><defs><g/><clipPath id="762d753da5"><path d="M 4.007812 24.039062 L 74.941406 24.039062 L 74.941406 88 L 4.007812 88 Z M 4.007812 24.039062 " clip-rule="nonzero"/></clipPath><clipPath id="f10bf01723"><rect x="0" width="285" y="0" height="69"/></clipPath></defs><g clip-path="url(#762d753da5)"><path fill="#ffffff" d="M 72.234375 24.210938 L 5 54.46875 C 4.679688 54.609375 4.429688 54.832031 4.246094 55.132812 C 4.066406 55.433594 3.988281 55.757812 4.011719 56.109375 C 4.035156 56.460938 4.15625 56.773438 4.375 57.046875 C 4.59375 57.320312 4.871094 57.507812 5.207031 57.609375 L 27.960938 64.433594 L 34.328125 86.71875 C 34.414062 87.019531 34.570312 87.273438 34.796875 87.484375 C 35.027344 87.699219 35.292969 87.835938 35.597656 87.902344 C 35.710938 87.921875 35.828125 87.9375 35.945312 87.9375 C 36.46875 87.9375 36.898438 87.734375 37.234375 87.332031 L 49.898438 72.132812 L 72.300781 81.089844 C 72.5 81.171875 72.707031 81.214844 72.921875 81.214844 C 73.144531 81.214844 73.359375 81.171875 73.566406 81.085938 C 73.773438 81 73.953125 80.878906 74.113281 80.71875 C 74.269531 80.5625 74.390625 80.382812 74.476562 80.175781 C 74.5625 79.96875 74.605469 79.753906 74.605469 79.53125 L 74.605469 25.746094 C 74.605469 25.605469 74.585938 25.464844 74.550781 25.328125 C 74.515625 25.195312 74.464844 25.0625 74.398438 24.941406 C 74.332031 24.816406 74.25 24.703125 74.15625 24.601562 C 74.058594 24.5 73.953125 24.410156 73.835938 24.332031 C 73.71875 24.257812 73.59375 24.195312 73.460938 24.152344 C 73.328125 24.105469 73.191406 24.078125 73.050781 24.066406 C 72.910156 24.058594 72.769531 24.066406 72.632812 24.089844 C 72.496094 24.113281 72.363281 24.152344 72.234375 24.210938 Z M 10.488281 55.683594 L 62.453125 32.296875 L 28.535156 61.101562 Z M 36.6875 82.738281 L 31.132812 63.304688 L 59.335938 39.351562 L 38.011719 65.011719 C 37.925781 65.113281 37.855469 65.222656 37.796875 65.34375 C 37.738281 65.460938 37.695312 65.585938 37.664062 65.714844 C 37.636719 65.84375 37.621094 65.976562 37.625 66.105469 C 37.625 66.238281 37.644531 66.371094 37.675781 66.5 C 37.707031 66.628906 37.753906 66.75 37.816406 66.867188 C 37.878906 66.984375 37.953125 67.09375 38.042969 67.191406 C 38.128906 67.292969 38.226562 67.378906 38.335938 67.457031 C 38.441406 67.53125 38.558594 67.59375 38.683594 67.644531 L 46.617188 70.820312 Z M 71.242188 77.050781 L 42.074219 65.382812 L 71.242188 30.289062 Z M 71.242188 77.050781 " fill-opacity="1" fill-rule="nonzero"/></g><g transform="matrix(1, 0, 0, 1, 88, 21)"><g clip-path="url(#f10bf01723)"><g fill="#ffffff" fill-opacity="1"><g transform="translate(0.68445, 49.131944)"><g><path d="M 3.234375 -44.40625 L 19.4375 -44.40625 C 23.957031 -44.40625 27.613281 -43.238281 30.40625 -40.90625 C 33.207031 -38.570312 34.609375 -35.179688 34.609375 -30.734375 C 34.609375 -26.285156 33.191406 -22.796875 30.359375 -20.265625 C 27.523438 -17.734375 23.882812 -16.46875 19.4375 -16.46875 L 13.34375 -16.46875 L 13.34375 0 L 3.234375 0 Z M 13.34375 -24.546875 L 16.203125 -24.546875 C 18.460938 -24.546875 20.316406 -25.003906 21.765625 -25.921875 C 23.222656 -26.835938 23.953125 -28.332031 23.953125 -30.40625 C 23.953125 -32.53125 23.222656 -34.046875 21.765625 -34.953125 C 20.316406 -35.867188 18.460938 -36.328125 16.203125 -36.328125 L 13.34375 -36.328125 Z M 13.34375 -24.546875 "/></g></g></g><g fill="#ffffff" fill-opacity="1"><g transform="translate(31.957171, 49.131944)"><g><path d="M 5.109375 -3.40625 C 2.523438 -6.226562 1.234375 -9.6875 1.234375 -13.78125 C 1.234375 -17.875 2.523438 -21.335938 5.109375 -24.171875 C 7.691406 -27.003906 10.976562 -28.421875 14.96875 -28.421875 C 18.625 -28.421875 21.632812 -27.269531 24 -24.96875 L 24 -27.609375 L 33.53125 -27.609375 L 33.53125 0 L 24.109375 0 L 24.109375 -3.125 L 24 -3.125 C 21.632812 -0.5 18.625 0.8125 14.96875 0.8125 C 10.976562 0.8125 7.691406 -0.59375 5.109375 -3.40625 Z M 13.21875 -18.46875 C 11.976562 -17.25 11.359375 -15.6875 11.359375 -13.78125 C 11.359375 -11.875 11.945312 -10.320312 13.125 -9.125 C 14.3125 -7.925781 15.875 -7.328125 17.8125 -7.328125 C 19.675781 -7.328125 21.207031 -7.9375 22.40625 -9.15625 C 23.613281 -10.375 24.21875 -11.914062 24.21875 -13.78125 C 24.21875 -15.6875 23.597656 -17.25 22.359375 -18.46875 C 21.128906 -19.6875 19.613281 -20.296875 17.8125 -20.296875 C 15.988281 -20.296875 14.457031 -19.6875 13.21875 -18.46875 Z M 13.21875 -18.46875 "/></g></g></g><g fill="#ffffff" fill-opacity="1"><g transform="translate(64.144934, 49.131944)"><g><path d="M 31.65625 -24.1875 C 34.238281 -21.375 35.53125 -17.921875 35.53125 -13.828125 C 35.53125 -9.742188 34.238281 -6.28125 31.65625 -3.4375 C 29.070312 -0.601562 25.785156 0.8125 21.796875 0.8125 C 18.140625 0.8125 15.125 -0.335938 12.75 -2.640625 L 12.75 14 L 3.234375 14 L 3.234375 -27.609375 L 12.65625 -27.609375 L 12.65625 -24.484375 L 12.75 -24.484375 C 15.125 -27.109375 18.140625 -28.421875 21.796875 -28.421875 C 25.785156 -28.421875 29.070312 -27.007812 31.65625 -24.1875 Z M 23.546875 -9.15625 C 24.785156 -10.375 25.40625 -11.929688 25.40625 -13.828125 C 25.40625 -15.734375 24.8125 -17.285156 23.625 -18.484375 C 22.445312 -19.691406 20.890625 -20.296875 18.953125 -20.296875 C 17.085938 -20.296875 15.550781 -19.6875 14.34375 -18.46875 C 13.144531 -17.25 12.546875 -15.703125 12.546875 -13.828125 C 12.546875 -11.929688 13.160156 -10.375 14.390625 -9.15625 C 15.628906 -7.9375 17.148438 -7.328125 18.953125 -7.328125 C 20.773438 -7.328125 22.304688 -7.9375 23.546875 -9.15625 Z M 23.546875 -9.15625 "/></g></g></g><g fill="#ffffff" fill-opacity="1"><g transform="translate(96.332698, 49.131944)"><g><path d="M 31.171875 -12.484375 L 11.140625 -12.484375 C 11.140625 -10.546875 11.765625 -9.109375 13.015625 -8.171875 C 14.273438 -7.242188 15.644531 -6.78125 17.125 -6.78125 C 18.664062 -6.78125 19.882812 -6.984375 20.78125 -7.390625 C 21.675781 -7.804688 22.695312 -8.625 23.84375 -9.84375 L 30.734375 -6.40625 C 27.859375 -1.59375 23.085938 0.8125 16.421875 0.8125 C 12.253906 0.8125 8.679688 -0.613281 5.703125 -3.46875 C 2.722656 -6.320312 1.234375 -9.757812 1.234375 -13.78125 C 1.234375 -17.800781 2.722656 -21.242188 5.703125 -24.109375 C 8.679688 -26.984375 12.253906 -28.421875 16.421875 -28.421875 C 20.796875 -28.421875 24.351562 -27.15625 27.09375 -24.625 C 29.84375 -22.09375 31.21875 -18.476562 31.21875 -13.78125 C 31.21875 -13.132812 31.203125 -12.703125 31.171875 -12.484375 Z M 11.40625 -17.765625 L 21.90625 -17.765625 C 21.6875 -19.203125 21.117188 -20.304688 20.203125 -21.078125 C 19.296875 -21.847656 18.125 -22.234375 16.6875 -22.234375 C 15.101562 -22.234375 13.84375 -21.816406 12.90625 -20.984375 C 11.976562 -20.160156 11.476562 -19.085938 11.40625 -17.765625 Z M 11.40625 -17.765625 "/></g></g></g><g fill="#ffffff" fill-opacity="1"><g transform="translate(124.214339, 49.131944)"><g><path d="M 3.234375 0 L 3.234375 -27.609375 L 12.75 -27.609375 L 12.75 -23.625 L 12.859375 -23.625 C 12.929688 -23.769531 13.046875 -23.945312 13.203125 -24.15625 C 13.367188 -24.375 13.722656 -24.753906 14.265625 -25.296875 C 14.804688 -25.835938 15.378906 -26.320312 15.984375 -26.75 C 16.597656 -27.1875 17.390625 -27.570312 18.359375 -27.90625 C 19.328125 -28.25 20.3125 -28.421875 21.3125 -28.421875 C 22.351562 -28.421875 23.375 -28.273438 24.375 -27.984375 C 25.382812 -27.703125 26.125 -27.414062 26.59375 -27.125 L 27.34375 -26.703125 L 23.359375 -18.625 C 22.171875 -19.625 20.519531 -20.125 18.40625 -20.125 C 17.257812 -20.125 16.269531 -19.875 15.4375 -19.375 C 14.613281 -18.875 14.03125 -18.265625 13.6875 -17.546875 C 13.351562 -16.828125 13.113281 -16.21875 12.96875 -15.71875 C 12.820312 -15.21875 12.75 -14.820312 12.75 -14.53125 L 12.75 0 Z M 3.234375 0 "/></g></g></g><g fill="#ffffff" fill-opacity="1"><g transform="translate(146.444207, 49.131944)"><g><path d="M 3.234375 -44.40625 L 19.4375 -44.40625 C 23.957031 -44.40625 27.613281 -43.238281 30.40625 -40.90625 C 33.207031 -38.570312 34.609375 -35.179688 34.609375 -30.734375 C 34.609375 -26.285156 33.191406 -22.796875 30.359375 -20.265625 C 27.523438 -17.734375 23.882812 -16.46875 19.4375 -16.46875 L 13.34375 -16.46875 L 13.34375 0 L 3.234375 0 Z M 13.34375 -24.546875 L 16.203125 -24.546875 C 18.460938 -24.546875 20.316406 -25.003906 21.765625 -25.921875 C 23.222656 -26.835938 23.953125 -28.332031 23.953125 -30.40625 C 23.953125 -32.53125 23.222656 -34.046875 21.765625 -34.953125 C 20.316406 -35.867188 18.460938 -36.328125 16.203125 -36.328125 L 13.34375 -36.328125 Z M 13.34375 -24.546875 "/></g></g></g><g fill="#ffffff" fill-opacity="1"><g transform="translate(177.716927, 49.131944)"><g><path d="M 3.234375 0 L 3.234375 -46.296875 L 12.75 -46.296875 L 12.75 0 Z M 3.234375 0 "/></g></g></g><g fill="#ffffff" fill-opacity="1"><g transform="translate(189.127683, 49.131944)"><g><path d="M 5.109375 -3.40625 C 2.523438 -6.226562 1.234375 -9.6875 1.234375 -13.78125 C 1.234375 -17.875 2.523438 -21.335938 5.109375 -24.171875 C 7.691406 -27.003906 10.976562 -28.421875 14.96875 -28.421875 C 18.625 -28.421875 21.632812 -27.269531 24 -24.96875 L 24 -27.609375 L 33.53125 -27.609375 L 33.53125 0 L 24.109375 0 L 24.109375 -3.125 L 24 -3.125 C 21.632812 -0.5 18.625 0.8125 14.96875 0.8125 C 10.976562 0.8125 7.691406 -0.59375 5.109375 -3.40625 Z M 13.21875 -18.46875 C 11.976562 -17.25 11.359375 -15.6875 11.359375 -13.78125 C 11.359375 -11.875 11.945312 -10.320312 13.125 -9.125 C 14.3125 -7.925781 15.875 -7.328125 17.8125 -7.328125 C 19.675781 -7.328125 21.207031 -7.9375 22.40625 -9.15625 C 23.613281 -10.375 24.21875 -11.914062 24.21875 -13.78125 C 24.21875 -15.6875 23.597656 -17.25 22.359375 -18.46875 C 21.128906 -19.6875 19.613281 -20.296875 17.8125 -20.296875 C 15.988281 -20.296875 14.457031 -19.6875 13.21875 -18.46875 Z M 13.21875 -18.46875 "/></g></g></g><g fill="#ffffff" fill-opacity="1"><g transform="translate(221.315447, 49.131944)"><g><path d="M 3.234375 0 L 3.234375 -27.609375 L 12.75 -27.609375 L 12.75 -24.703125 L 12.859375 -24.703125 C 15.335938 -27.179688 17.976562 -28.421875 20.78125 -28.421875 C 22.144531 -28.421875 23.5 -28.238281 24.84375 -27.875 C 26.1875 -27.519531 27.476562 -26.960938 28.71875 -26.203125 C 29.957031 -25.453125 30.960938 -24.382812 31.734375 -23 C 32.503906 -21.625 32.890625 -20.019531 32.890625 -18.1875 L 32.890625 0 L 23.359375 0 L 23.359375 -15.609375 C 23.359375 -17.046875 22.898438 -18.300781 21.984375 -19.375 C 21.066406 -20.457031 19.875 -21 18.40625 -21 C 16.96875 -21 15.664062 -20.441406 14.5 -19.328125 C 13.332031 -18.210938 12.75 -16.972656 12.75 -15.609375 L 12.75 0 Z M 3.234375 0 "/></g></g></g><g fill="#ffffff" fill-opacity="1"><g transform="translate(252.319028, 49.131944)"><g><path d="M 31.171875 -12.484375 L 11.140625 -12.484375 C 11.140625 -10.546875 11.765625 -9.109375 13.015625 -8.171875 C 14.273438 -7.242188 15.644531 -6.78125 17.125 -6.78125 C 18.664062 -6.78125 19.882812 -6.984375 20.78125 -7.390625 C 21.675781 -7.804688 22.695312 -8.625 23.84375 -9.84375 L 30.734375 -6.40625 C 27.859375 -1.59375 23.085938 0.8125 16.421875 0.8125 C 12.253906 0.8125 8.679688 -0.613281 5.703125 -3.46875 C 2.722656 -6.320312 1.234375 -9.757812 1.234375 -13.78125 C 1.234375 -17.800781 2.722656 -21.242188 5.703125 -24.109375 C 8.679688 -26.984375 12.253906 -28.421875 16.421875 -28.421875 C 20.796875 -28.421875 24.351562 -27.15625 27.09375 -24.625 C 29.84375 -22.09375 31.21875 -18.476562 31.21875 -13.78125 C 31.21875 -13.132812 31.203125 -12.703125 31.171875 -12.484375 Z M 11.40625 -17.765625 L 21.90625 -17.765625 C 21.6875 -19.203125 21.117188 -20.304688 20.203125 -21.078125 C 19.296875 -21.847656 18.125 -22.234375 16.6875 -22.234375 C 15.101562 -22.234375 13.84375 -21.816406 12.90625 -20.984375 C 11.976562 -20.160156 11.476562 -19.085938 11.40625 -17.765625 Z M 11.40625 -17.765625 "/></g></g></g></g></g></svg>