<svg xmlns="http://www.w3.org/2000/svg" xmlns:xlink="http://www.w3.org/1999/xlink" width="384" zoomAndPan="magnify" viewBox="0 0 288 287.999989" height="384" preserveAspectRatio="xMidYMid meet" version="1.0"><defs><clipPath id="c91eaa3ae0"><path d="M 34.066406 53.152344 L 235 53.152344 L 235 234.652344 L 34.066406 234.652344 Z M 34.066406 53.152344 " clip-rule="nonzero"/></clipPath></defs><g clip-path="url(#c91eaa3ae0)"><path fill="#ffffff" d="M 227.992188 53.644531 L 36.886719 139.640625 C 36.441406 139.839844 36.035156 140.101562 35.671875 140.421875 C 35.308594 140.746094 35 141.117188 34.75 141.535156 C 34.5 141.953125 34.316406 142.398438 34.199219 142.871094 C 34.085938 143.34375 34.042969 143.824219 34.078125 144.308594 C 34.109375 144.796875 34.210938 145.265625 34.386719 145.71875 C 34.5625 146.171875 34.804688 146.589844 35.105469 146.972656 C 35.410156 147.351562 35.765625 147.679688 36.167969 147.953125 C 36.570312 148.222656 37.007812 148.429688 37.472656 148.570312 L 102.148438 167.96875 L 120.246094 231.3125 C 120.492188 232.160156 120.9375 232.886719 121.585938 233.492188 C 122.230469 234.09375 122.988281 234.488281 123.851562 234.671875 C 124.179688 234.734375 124.507812 234.769531 124.84375 234.773438 C 125.550781 234.773438 126.226562 234.621094 126.867188 234.320312 C 127.511719 234.019531 128.058594 233.597656 128.515625 233.054688 L 164.511719 189.847656 L 228.175781 215.316406 C 228.746094 215.546875 229.335938 215.664062 229.949219 215.660156 C 230.261719 215.660156 230.574219 215.628906 230.882812 215.570312 C 231.191406 215.507812 231.488281 215.417969 231.777344 215.296875 C 232.066406 215.175781 232.34375 215.03125 232.605469 214.855469 C 232.863281 214.683594 233.105469 214.484375 233.328125 214.261719 C 233.550781 214.039062 233.746094 213.800781 233.921875 213.539062 C 234.097656 213.277344 234.242188 213 234.363281 212.710938 C 234.484375 212.421875 234.574219 212.125 234.636719 211.816406 C 234.695312 211.507812 234.726562 211.199219 234.726562 210.882812 L 234.726562 58 C 234.726562 57.601562 234.679688 57.207031 234.578125 56.820312 C 234.480469 56.433594 234.335938 56.066406 234.144531 55.714844 C 233.957031 55.367188 233.726562 55.042969 233.453125 54.75 C 233.183594 54.460938 232.878906 54.203125 232.542969 53.988281 C 232.210938 53.773438 231.851562 53.597656 231.476562 53.472656 C 231.097656 53.34375 230.710938 53.265625 230.3125 53.234375 C 229.914062 53.207031 229.519531 53.226562 229.125 53.292969 C 228.730469 53.363281 228.355469 53.480469 227.992188 53.644531 Z M 52.484375 143.101562 L 200.191406 76.628906 L 103.789062 158.492188 Z M 126.957031 220 L 111.171875 164.757812 L 191.332031 96.679688 L 130.722656 169.609375 C 130.480469 169.902344 130.277344 170.214844 130.109375 170.550781 C 129.941406 170.890625 129.816406 171.242188 129.734375 171.609375 C 129.652344 171.976562 129.613281 172.347656 129.617188 172.726562 C 129.621094 173.101562 129.671875 173.472656 129.765625 173.839844 C 129.855469 174.203125 129.992188 174.550781 130.167969 174.886719 C 130.34375 175.21875 130.554688 175.527344 130.804688 175.808594 C 131.050781 176.09375 131.328125 176.34375 131.636719 176.558594 C 131.945312 176.777344 132.273438 176.957031 132.625 177.09375 L 155.183594 186.117188 Z M 225.171875 203.828125 L 142.269531 170.664062 L 225.171875 70.914062 Z M 225.171875 203.828125 " fill-opacity="1" fill-rule="nonzero"/></g></svg>